<svg xmlns="http://www.w3.org/2000/svg" width="175" height="175" viewBox="0 0 175 175">
  <rect fill="none" width="175" height="175"/>
  <g fill="#fefefe">
    <g>
      <path d="M175,87a44,44,0,0,1-88,0Z"/>
      <path d="M87,87H0C0,62.7,19.48,43,43.5,43S87,62.7,87,87Z"/>
    </g>
    <g>
      <g>
        <circle cx="28.5" cy="97.5" r="2.5"/>
        <circle cx="28.5" cy="110.5" r="2.5"/>
        <circle cx="28.5" cy="133.5" r="2.5"/>
      </g>
      <g>
        <circle cx="58.5" cy="97.5" r="2.5"/>
        <circle cx="58.5" cy="110.5" r="2.5"/>
        <circle cx="58.5" cy="133.5" r="2.5"/>
      </g>
    </g>
  </g>
  <g fill="#68a7ff">
    <g>
      <rect x="41.5" y="95" width="4" height="12"/>
      <rect x="41.5" y="116" width="4" height="12"/>
    </g>
    <g>
      <rect x="11.5" y="95" width="4" height="12"/>
      <rect x="11.5" y="116" width="4" height="12"/>
    </g>
    <g>
      <rect x="71.5" y="95" width="4" height="12"/>
      <rect x="71.5" y="116" width="4" height="12"/>
    </g>
  </g>
</svg>