<svg xmlns="http://www.w3.org/2000/svg" width="175" height="175" viewBox="0 0 175 175">
  <rect fill="none" width="175" height="175"/>
  <g fill="#fefefe">
    <path d="M175,87a44,44,0,0,1-88,0Z"/>
    <path d="M87,87H0C0,62.7,19.48,43,43.5,43S87,62.7,87,87Z"/>
  </g>
  <g fill="#dfc69f">
    <path d="M52.17,122.14a10.52,10.52,0,0,0,11.22,0,16.95,16.95,0,0,1,17.32,0l.35.2-3,3.26-.39-.22a10.52,10.52,0,0,0-11.22,0,15.72,15.72,0,0,1-8.67,2.38,15.7,15.7,0,0,1-8.65-2.38,9.71,9.71,0,0,0-5.62-1.62v-4A15.8,15.8,0,0,1,52.17,122.14Zm-17.34,0a9.62,9.62,0,0,1-5.6,1.62,9.64,9.64,0,0,1-5.62-1.62,15.8,15.8,0,0,0-8.67-2.38,15.7,15.7,0,0,0-8.65,2.38l-.35.2,3,3.26.39-.22a9.62,9.62,0,0,1,5.6-1.62,9.67,9.67,0,0,1,5.62,1.62,15.72,15.72,0,0,0,8.67,2.38,15.7,15.7,0,0,0,8.65-2.38,9.71,9.71,0,0,1,5.62-1.62v-4A15.8,15.8,0,0,0,34.83,122.14Z"/>
    <path d="M52.17,110.14a10.52,10.52,0,0,0,11.22,0,16.95,16.95,0,0,1,17.32,0l.35.2-3,3.26-.39-.22a10.52,10.52,0,0,0-11.22,0,15.72,15.72,0,0,1-8.67,2.38,15.7,15.7,0,0,1-8.65-2.38,9.71,9.71,0,0,0-5.62-1.62v-4A15.8,15.8,0,0,1,52.17,110.14Zm-17.34,0a9.62,9.62,0,0,1-5.6,1.62,9.64,9.64,0,0,1-5.62-1.62,15.8,15.8,0,0,0-8.67-2.38,15.7,15.7,0,0,0-8.65,2.38l-.35.2,3,3.26.39-.22a9.62,9.62,0,0,1,5.6-1.62,9.67,9.67,0,0,1,5.62,1.62,15.72,15.72,0,0,0,8.67,2.38,15.7,15.7,0,0,0,8.65-2.38,9.71,9.71,0,0,1,5.62-1.62v-4A15.8,15.8,0,0,0,34.83,110.14Z"/>
    <path d="M52.17,98.14a10.52,10.52,0,0,0,11.22,0,16.95,16.95,0,0,1,17.32,0l.35.2-3,3.26-.39-.22a10.52,10.52,0,0,0-11.22,0,15.72,15.72,0,0,1-8.67,2.38,15.7,15.7,0,0,1-8.65-2.38,9.71,9.71,0,0,0-5.62-1.62v-4A15.8,15.8,0,0,1,52.17,98.14Zm-17.34,0a9.62,9.62,0,0,1-5.6,1.62,9.64,9.64,0,0,1-5.62-1.62,15.8,15.8,0,0,0-8.67-2.38,15.7,15.7,0,0,0-8.65,2.38l-.35.2,3,3.26.39-.22a9.62,9.62,0,0,1,5.6-1.62,9.67,9.67,0,0,1,5.62,1.62,15.72,15.72,0,0,0,8.67,2.38,15.7,15.7,0,0,0,8.65-2.38,9.71,9.71,0,0,1,5.62-1.62v-4A15.8,15.8,0,0,0,34.83,98.14Z"/>
  </g>
</svg>
