<svg xmlns="http://www.w3.org/2000/svg" width="175" height="175" viewBox="0 0 175 175">
  <defs>
    <style>
      .a {
        fill: none;
      }

      .b {
        fill: #e0c8a4;
      }

      .c {
        fill: #fefefe;
      }

      .d {
        fill: #dfc69f;
      }
    </style>
  </defs>
  <rect class="a" width="175" height="175"/>
  <path class="b" d="M118.5,66.1A26.48,26.48,0,0,1,73.6,38,26.27,26.27,0,0,1,86,27.6a26.44,26.44,0,0,0,8.4,36.5,27,27,0,0,0,24.1,2Z"/>
  <g>
    <path class="c" d="M175,87.5a44,44,0,0,1-88,0Z"/>
    <path class="c" d="M87,87.5H0c0-24.3,19.48-44,43.5-44S87,63.2,87,87.5Z"/>
  </g>
  <g>
    <path class="d" d="M52.17,122.64a10.52,10.52,0,0,0,11.22,0,17,17,0,0,1,17.32,0l.35.2-3,3.26-.39-.22a10.52,10.52,0,0,0-11.22,0,15.71,15.71,0,0,1-8.67,2.38,15.73,15.73,0,0,1-8.65-2.38,9.73,9.73,0,0,0-5.62-1.62v-4A15.85,15.85,0,0,1,52.17,122.64Zm-17.34,0a9.6,9.6,0,0,1-5.6,1.62,9.59,9.59,0,0,1-5.62-1.62,15.8,15.8,0,0,0-8.67-2.38,15.73,15.73,0,0,0-8.65,2.38l-.35.2,3,3.26.39-.22a9.6,9.6,0,0,1,5.6-1.62,9.66,9.66,0,0,1,5.62,1.62,15.71,15.71,0,0,0,8.67,2.38,15.73,15.73,0,0,0,8.65-2.38,9.73,9.73,0,0,1,5.62-1.62v-4A15.85,15.85,0,0,0,34.83,122.64Z"/>
    <path class="d" d="M52.17,110.64a10.52,10.52,0,0,0,11.22,0,17,17,0,0,1,17.32,0l.35.2-3,3.26-.39-.22a10.52,10.52,0,0,0-11.22,0,15.71,15.71,0,0,1-8.67,2.38,15.73,15.73,0,0,1-8.65-2.38,9.73,9.73,0,0,0-5.62-1.62v-4A15.85,15.85,0,0,1,52.17,110.64Zm-17.34,0a9.6,9.6,0,0,1-5.6,1.62,9.59,9.59,0,0,1-5.62-1.62,15.8,15.8,0,0,0-8.67-2.38,15.73,15.73,0,0,0-8.65,2.38l-.35.2,3,3.26.39-.22a9.6,9.6,0,0,1,5.6-1.62,9.66,9.66,0,0,1,5.62,1.62,15.71,15.71,0,0,0,8.67,2.38,15.73,15.73,0,0,0,8.65-2.38,9.73,9.73,0,0,1,5.62-1.62v-4A15.85,15.85,0,0,0,34.83,110.64Z"/>
    <path class="d" d="M52.17,98.64a10.52,10.52,0,0,0,11.22,0,17,17,0,0,1,17.32,0l.35.2-3,3.26-.39-.22a10.52,10.52,0,0,0-11.22,0,15.71,15.71,0,0,1-8.67,2.38,15.73,15.73,0,0,1-8.65-2.38,9.73,9.73,0,0,0-5.62-1.62v-4A15.85,15.85,0,0,1,52.17,98.64Zm-17.34,0a9.6,9.6,0,0,1-5.6,1.62,9.59,9.59,0,0,1-5.62-1.62,15.8,15.8,0,0,0-8.67-2.38,15.73,15.73,0,0,0-8.65,2.38l-.35.2,3,3.26.39-.22a9.6,9.6,0,0,1,5.6-1.62,9.66,9.66,0,0,1,5.62,1.62,15.71,15.71,0,0,0,8.67,2.38,15.73,15.73,0,0,0,8.65-2.38,9.73,9.73,0,0,1,5.62-1.62v-4A15.85,15.85,0,0,0,34.83,98.64Z"/>
  </g>
</svg>
